<?xml version="1.0" encoding="UTF-8"?>
<!DOCTYPE svg PUBLIC "-//W3C//DTD SVG 1.0//EN" "http://www.w3.org/TR/2001/REC-SVG-20010904/DTD/svg10.dtd">
<!-- Creator: CorelDRAW 2019 (64-Bit Versión de evaluación) -->
<svg xmlns="http://www.w3.org/2000/svg" xml:space="preserve" width="10.6156mm" height="10.6156mm" version="1.0" style="shape-rendering:geometricPrecision; text-rendering:geometricPrecision; image-rendering:optimizeQuality; fill-rule:evenodd; clip-rule:evenodd"
viewBox="0 0 54.59 54.59"
 xmlns:xlink="http://www.w3.org/1999/xlink">
 <defs>
  <style type="text/css">
   <![CDATA[
    .fil1 {fill:#424242}
    .fil2 {fill:#FFFFFE}
    .fil0 {fill:white}
   ]]>
  </style>
 </defs>
 <g id="Capa_x0020_1">
  <metadata id="CorelCorpID_0Corel-Layer"/>
  <circle class="fil0" cx="27.3" cy="27.3" r="27.3"/>
  <path class="fil1" d="M49.87 27.3c0,-12.47 -10.11,-22.58 -22.57,-22.58 -12.47,0 -22.57,10.11 -22.57,22.58 0,12.47 10.11,22.58 22.57,22.58 12.47,0 22.57,-10.11 22.57,-22.58z"/>
  <path class="fil2" d="M16.07 39.37l0 0zm18.87 9.18c-2.38,0.86 -4.96,1.33 -7.65,1.33 -1.73,0 -3.42,-0.19 -5.04,-0.56 0,-0.42 -0.01,-0.81 -0.01,-1.32 -0.01,-0.6 -0.01,-1.36 -0.02,-2.22 -6.48,1.18 -7.99,-3.38 -8.06,-3.57 -1.03,-2.6 -2.45,-3.27 -2.45,-3.28l-0.05 -0.03c-3.27,-2.24 0.38,-2.19 0.39,-2.19l0.03 0c2.55,0.18 3.91,2.54 3.99,2.67 0.78,1.33 1.73,1.99 2.68,2.26 1.37,0.4 2.77,-0.01 3.58,-0.34 0.11,-0.67 0.3,-1.26 0.53,-1.75 0.16,-0.33 0.34,-0.62 0.53,-0.88 -2.47,-0.35 -4.95,-1.07 -6.89,-2.7 -2.15,-1.81 -3.6,-4.72 -3.6,-9.45l0 0c0,-1.32 0.23,-2.52 0.65,-3.61 0.41,-1.08 1.01,-2.05 1.76,-2.9 -0.14,-0.4 -0.34,-1.11 -0.4,-2.05 -0.07,-1.15 0.05,-2.64 0.73,-4.36l0.01 -0.03c0,0 0.3,-0.25 0.71,-0.28 0.28,-0.01 0.69,0 1.25,0.11 1.09,0.22 2.75,0.83 5.06,2.36 0.91,-0.24 1.85,-0.43 2.8,-0.56 1.03,-0.14 2.08,-0.21 3.13,-0.21l0 0c1.04,0.01 2.09,0.07 3.13,0.21 0.95,0.13 1.89,0.32 2.8,0.56 4.63,-3.09 6.76,-2.41 6.76,-2.41l0.19 0.05 0.07 0.18c0.68,1.72 0.81,3.21 0.73,4.35 -0.06,0.94 -0.26,1.65 -0.4,2.05 0.75,0.85 1.34,1.82 1.76,2.89 0.42,1.09 0.65,2.3 0.65,3.62 0,4.74 -1.46,7.65 -3.61,9.45 -1.94,1.62 -4.42,2.33 -6.9,2.68 0.29,0.38 0.55,0.85 0.75,1.4 0.28,0.75 0.44,1.66 0.44,2.74 0,1.92 -0.01,3.92 -0.03,5.24 0,0.19 0,0.36 0,0.52l0 0 0.01 0.02zm-20 -8.34c0.17,0.02 0.3,0.15 0.28,0.31 -0.01,0.15 -0.17,0.26 -0.34,0.25 -0.17,-0.02 -0.3,-0.15 -0.28,-0.31 0.01,-0.15 0.17,-0.26 0.34,-0.25l0 0zm0.65 1.66c0.01,-0.15 0.17,-0.26 0.34,-0.25 0.17,0.02 0.3,0.15 0.28,0.31 -0.01,0.15 -0.17,0.26 -0.34,0.25 -0.17,-0.02 -0.3,-0.15 -0.28,-0.31zm-2.23 -3.82c0.17,0.02 0.3,0.15 0.28,0.31 -0.01,0.15 -0.17,0.26 -0.34,0.25 -0.17,-0.02 -0.3,-0.15 -0.28,-0.31 0.01,-0.15 0.17,-0.26 0.34,-0.25zm0.82 0.92c0.17,0.02 0.3,0.15 0.28,0.31 -0.01,0.15 -0.17,0.26 -0.34,0.25 -0.17,-0.02 -0.3,-0.15 -0.28,-0.31 0.01,-0.15 0.17,-0.26 0.34,-0.25zm3.07 3.63c0.17,0.02 0.3,0.15 0.28,0.31 -0.01,0.15 -0.17,0.26 -0.34,0.25 -0.17,-0.02 -0.3,-0.15 -0.28,-0.31 0.01,-0.15 0.17,-0.26 0.34,-0.25zm1.9 0.52c0.17,0.02 0.3,0.15 0.28,0.31 -0.01,0.15 -0.17,0.26 -0.34,0.25 -0.17,-0.02 -0.3,-0.15 -0.28,-0.31 0.01,-0.15 0.17,-0.26 0.34,-0.25l0 0zm1.76 -0.14c0.17,0.02 0.3,0.15 0.28,0.31 -0.01,0.15 -0.17,0.26 -0.34,0.25 -0.17,-0.02 -0.3,-0.15 -0.28,-0.31 0.01,-0.15 0.17,-0.26 0.34,-0.25l0 0z"/>
 </g>
</svg>
