<?xml version="1.0" encoding="UTF-8"?>
<!DOCTYPE svg PUBLIC "-//W3C//DTD SVG 1.0//EN" "http://www.w3.org/TR/2001/REC-SVG-20010904/DTD/svg10.dtd">
<!-- Creator: CorelDRAW 2019 (64-Bit Versión de evaluación) -->
<svg xmlns="http://www.w3.org/2000/svg" xml:space="preserve" width="10.5832mm" height="10.5832mm" version="1.0" style="shape-rendering:geometricPrecision; text-rendering:geometricPrecision; image-rendering:optimizeQuality; fill-rule:evenodd; clip-rule:evenodd"
viewBox="0 0 47.71 47.71"
 xmlns:xlink="http://www.w3.org/1999/xlink">
 <defs>
  <style type="text/css">
   <![CDATA[
    .fil1 {fill:#00A200}
    .fil0 {fill:white}
   ]]>
  </style>
 </defs>
 <g id="Capa_x0020_1">
  <metadata id="CorelCorpID_0Corel-Layer"/>
  <g id="_2313684844112">
   <path class="fil0" d="M23.86 0c13.17,0 23.86,10.68 23.86,23.86 0,13.18 -10.68,23.86 -23.86,23.86 -13.17,0 -23.86,-10.68 -23.86,-23.86 0,-13.17 10.68,-23.86 23.86,-23.86z"/>
   <path class="fil1" d="M13.47 19.36c0,-2.16 1.65,-4.85 2.77,-4.85 2.55,0 1.98,-0.22 3.07,2.3 0.17,0.4 1.09,2.47 1.09,2.72 0,1.79 -2.74,1.76 -1.24,3.84 0.74,1.02 1.56,2.23 2.55,2.99 1.4,1.07 2.83,2.25 4.75,2.69 1.16,-0.78 1.69,-2.17 2.6,-2.77 0.92,0.22 2.04,0.84 2.89,1.27 1.49,0.75 2.24,0.71 2.2,1.76 -0.09,3 -2.18,4.24 -4.92,4.24 -3.72,0 -7.62,-2.62 -10.17,-4.73l-1.73 -1.91c-0.65,-0.76 -1.06,-1.42 -1.61,-2.2 -0.97,-1.36 -2.25,-3.53 -2.25,-5.37l0 -0zm-5.89 3.64c0,7.74 2.6,8.46 2.6,10.56 0,1.95 -0.01,1.43 -0.48,3.15 -0.17,0.64 -0.51,1.64 -0.56,2.22 0.56,-0.27 4.34,-1.21 5.2,-1.21 1.9,0 7.23,4.88 16.5,0.92 5.04,-2.15 9.3,-8.31 9.3,-13.91 0,-4.66 -0.84,-7.85 -3.76,-11.31 -0.86,-1.02 -1.91,-2.1 -3.03,-2.86 -12.06,-8.11 -25.77,1.45 -25.77,12.44l0 0z"/>
  </g>
 </g>
</svg>
