<?xml version="1.0" encoding="UTF-8"?>
<!DOCTYPE svg PUBLIC "-//W3C//DTD SVG 1.0//EN" "http://www.w3.org/TR/2001/REC-SVG-20010904/DTD/svg10.dtd">
<!-- Creator: CorelDRAW 2019 (64-Bit Versión de evaluación) -->
<svg xmlns="http://www.w3.org/2000/svg" xml:space="preserve" width="10.6156mm" height="10.6156mm" version="1.0" style="shape-rendering:geometricPrecision; text-rendering:geometricPrecision; image-rendering:optimizeQuality; fill-rule:evenodd; clip-rule:evenodd"
viewBox="0 0 63.43 63.43"
 xmlns:xlink="http://www.w3.org/1999/xlink">
 <defs>
  <style type="text/css">
   <![CDATA[
    .fil1 {fill:#0077B7}
    .fil2 {fill:#FEFEFE}
    .fil0 {fill:white}
   ]]>
  </style>
 </defs>
 <g id="Capa_x0020_1">
  <metadata id="CorelCorpID_0Corel-Layer"/>
  <path class="fil0" d="M63.43 31.71c0,-17.51 -14.2,-31.71 -31.71,-31.71 -17.51,0 -31.71,14.2 -31.71,31.71 0,17.52 14.2,31.71 31.71,31.71 17.51,0 31.71,-14.2 31.71,-31.71z"/>
  <circle class="fil1" cx="31.71" cy="31.71" r="26.23"/>
  <path class="fil2" d="M33.35 28.85c0.03,-3.04 0.26,-2.55 -5.04,-2.56 -1.79,0 -1.67,0.48 -1.67,2.13l0 15.22c0,3.49 -0.38,3.93 1.81,3.93 0.62,0 1.25,0 1.87,0 1.17,0 2.75,0.3 3.01,-0.77 0.1,-0.41 0.04,-6.59 0.04,-7.56 0,-2.73 -0.21,-4.55 1.23,-6.41 0.49,-0.64 1.52,-1.12 2.74,-1.07 3.9,0.19 3.28,5 3.28,8.08l0 5.74c0,2.27 0.12,1.99 3.66,1.99 1.41,0 2.77,0.26 3.13,-0.65 0.16,-0.4 0.07,-6.56 0.07,-7.54 0,-2.46 0.07,-4.88 -0.37,-7.25 -0.4,-2.16 -1.47,-3.92 -2.76,-4.83 -1.56,-1.1 -3.89,-1.57 -6.16,-1.22 -2.08,0.33 -3.12,0.85 -4.35,2.26 -0.12,0.14 -0.11,0.14 -0.2,0.26l-0.26 0.27 -0.02 -0.01z"/>
  <path class="fil2" d="M16.93 46.64c0.16,1.12 1.44,0.92 2.57,0.92 4.33,0 4.12,0.42 4.12,-2.86 0,-1.77 0.07,-16.81 -0.02,-17.46 -0.15,-1.17 -1.49,-0.95 -2.57,-0.95 -4.35,0 -4.12,-0.41 -4.12,2.87 0,1.72 -0.07,16.91 0.01,17.48l0.01 0z"/>
  <path class="fil2" d="M19.38 15.93c-3.96,0.9 -4.51,5.75 -1.66,7.72 3.41,2.38 7.6,-0.71 6.78,-4.4 -0.46,-2.04 -2.52,-3.92 -5.13,-3.32z"/>
 </g>
</svg>
